<svg xmlns="http://www.w3.org/2000/svg" viewBox="0 0 1920 1080" role="img" aria-labelledby="title desc">
  <title id="title">Fondo vectorial Carnes San Martin</title>
  <desc id="desc">Fondo rojo suave con ilustraciones vectoriales de tortas, hamburguesa, tabla y detalles decorativos sin texto.</desc>
  <defs>
    <linearGradient id="bg" x1="0" y1="0" x2="1" y2="1">
      <stop offset="0" stop-color="#6f0d1d"/>
      <stop offset="0.48" stop-color="#a8192a"/>
      <stop offset="1" stop-color="#d94a3f"/>
    </linearGradient>
    <radialGradient id="softGlow" cx="32%" cy="52%" r="70%">
      <stop offset="0" stop-color="#f2a36d" stop-opacity="0.2"/>
      <stop offset="0.48" stop-color="#c43d35" stop-opacity="0.12"/>
      <stop offset="1" stop-color="#3c0710" stop-opacity="0.36"/>
    </radialGradient>
    <linearGradient id="wood" x1="0" y1="0" x2="1" y2="1">
      <stop offset="0" stop-color="#c58645"/>
      <stop offset="0.5" stop-color="#8e5029"/>
      <stop offset="1" stop-color="#4a2416"/>
    </linearGradient>
    <linearGradient id="packetA" x1="0" y1="0" x2="1" y2="1">
      <stop offset="0" stop-color="#d8703a"/>
      <stop offset="0.52" stop-color="#8e3326"/>
      <stop offset="1" stop-color="#2b1819"/>
    </linearGradient>
    <linearGradient id="packetB" x1="0" y1="0" x2="1" y2="1">
      <stop offset="0" stop-color="#6c2028"/>
      <stop offset="0.58" stop-color="#552026"/>
      <stop offset="1" stop-color="#241719"/>
    </linearGradient>
    <linearGradient id="paper" x1="0" y1="0" x2="1" y2="1">
      <stop offset="0" stop-color="#fff7ec"/>
      <stop offset="1" stop-color="#f0ddc6"/>
    </linearGradient>
    <filter id="softShadow" x="-30%" y="-30%" width="160%" height="160%">
      <feDropShadow dx="0" dy="22" stdDeviation="22" flood-color="#24060a" flood-opacity="0.28"/>
    </filter>
    <filter id="grain" x="-10%" y="-10%" width="120%" height="120%">
      <feTurbulence type="fractalNoise" baseFrequency="0.72" numOctaves="3" seed="11"/>
      <feColorMatrix type="saturate" values="0"/>
      <feComponentTransfer>
        <feFuncA type="table" tableValues="0 0.1"/>
      </feComponentTransfer>
    </filter>
    <pattern id="waves" width="116" height="116" patternUnits="userSpaceOnUse" patternTransform="rotate(-18)">
      <path d="M-10 58 C14 31 42 31 66 58 S118 85 142 58" fill="none" stroke="#651020" stroke-width="5" stroke-linecap="round" opacity="0.28"/>
      <path d="M-10 86 C14 59 42 59 66 86 S118 113 142 86" fill="none" stroke="#ffffff" stroke-width="3" stroke-linecap="round" opacity="0.08"/>
    </pattern>
    <g id="ringLogo">
      <circle cx="0" cy="0" r="58" fill="none" stroke="#f43232" stroke-width="34"/>
    </g>
    <g id="spark" fill="none" stroke="#fff7ef" stroke-linecap="round" stroke-linejoin="round" opacity="0.62">
      <path d="M0 0 l62 28 l-42 44 z" stroke-width="7"/>
      <path d="M11 20 l34 13 M7 43 l28 11" stroke-width="4"/>
    </g>
    <g id="meatDoodle" fill="none" stroke="#fff7ef" stroke-width="7" stroke-linecap="round" stroke-linejoin="round" opacity="0.72">
      <path d="M18 63 C34 16 92 12 116 52 C128 73 112 105 76 112 C39 119 7 96 18 63 Z"/>
      <path d="M54 51 C68 35 94 38 100 58"/>
      <path d="M46 82 C65 96 91 91 102 76"/>
    </g>
    <g id="plainFlag" fill="none" stroke="#fff7ef" stroke-width="6" stroke-linecap="round" stroke-linejoin="round" opacity="0.7">
      <path d="M0 92 V8"/>
      <path d="M4 16 C32 1 62 22 94 8 V58 C63 74 33 51 4 66 Z"/>
      <path d="M22 33 C38 25 54 40 72 31"/>
      <path d="M20 49 C39 42 54 55 77 47"/>
    </g>
  </defs>

  <rect width="1920" height="1080" fill="url(#bg)"/>
  <rect width="1920" height="1080" fill="url(#softGlow)"/>
  <rect width="1920" height="1080" fill="url(#waves)" opacity="0.52"/>
  <rect width="1920" height="1080" filter="url(#grain)" opacity="0.52"/>

  <g opacity="0.22" fill="none" stroke="#4c0714" stroke-width="14" stroke-linecap="round">
    <path d="M338 1062 C602 830 742 620 934 420 C1142 203 1408 126 1782 94"/>
    <path d="M610 1080 C756 862 918 690 1110 538 C1324 368 1550 292 1920 228"/>
    <path d="M1020 1080 C1184 850 1398 715 1606 618 C1742 555 1842 532 1920 518"/>
  </g>

  <g transform="translate(1398 158)" opacity="0.56">
    <use href="#ringLogo" transform="scale(1.05)"/>
  </g>
  <g transform="translate(222 156)" opacity="0.52">
    <use href="#ringLogo" transform="scale(.72)"/>
  </g>
  <g transform="translate(1236 522)" opacity="0.28">
    <use href="#ringLogo" transform="scale(1.45)"/>
  </g>

  <g transform="translate(884 124)" filter="url(#softShadow)">
    <g transform="rotate(-8 262 190)">
      <rect x="16" y="80" width="352" height="224" rx="28" fill="url(#packetB)" stroke="#2a1114" stroke-width="6"/>
      <path d="M28 92 H356 V128 C258 152 151 150 28 130 Z" fill="#ffffff" opacity="0.08"/>
      <rect x="46" y="112" width="126" height="148" rx="18" fill="#7b2630" opacity="0.82"/>
      <use href="#ringLogo" x="88" y="157" transform="scale(.32)"/>
      <rect x="205" y="118" width="104" height="12" rx="6" fill="#fff7ef" opacity="0.8"/>
      <rect x="205" y="150" width="128" height="12" rx="6" fill="#fff7ef" opacity="0.58"/>
      <rect x="205" y="184" width="94" height="12" rx="6" fill="#fff7ef" opacity="0.48"/>
      <rect x="250" y="218" width="70" height="70" rx="10" fill="url(#paper)" opacity="0.92"/>
      <path d="M263 235 h41 M263 251 h14 M292 251 h14 M263 267 h9 M281 267 h25" stroke="#351617" stroke-width="5" stroke-linecap="round"/>
      <circle cx="185" cy="246" r="42" fill="#fff7ef" opacity="0.88"/>
      <path d="M158 244 C177 224 206 224 224 244 C202 260 179 260 158 244 Z" fill="#6a321f"/>
    </g>

    <g transform="translate(300 26) rotate(7 220 170)">
      <rect x="0" y="54" width="330" height="206" rx="28" fill="url(#packetA)" stroke="#321514" stroke-width="6"/>
      <path d="M16 70 H315 V112 C210 136 111 135 16 115 Z" fill="#fff7ef" opacity="0.11"/>
      <rect x="30" y="92" width="116" height="136" rx="18" fill="#d98745" opacity="0.74"/>
      <use href="#ringLogo" x="70" y="133" transform="scale(.3)"/>
      <rect x="172" y="104" width="120" height="12" rx="6" fill="#fff7ef" opacity="0.82"/>
      <rect x="172" y="136" width="98" height="12" rx="6" fill="#fff7ef" opacity="0.58"/>
      <rect x="172" y="168" width="132" height="12" rx="6" fill="#fff7ef" opacity="0.48"/>
      <circle cx="236" cy="218" r="34" fill="#572015" opacity="0.72"/>
      <rect x="246" y="70" width="62" height="62" rx="9" fill="url(#paper)" opacity="0.9"/>
      <path d="M258 84 h34 M258 100 h12 M284 100 h10 M258 116 h7 M273 116 h22" stroke="#351617" stroke-width="4" stroke-linecap="round"/>
    </g>

    <g transform="translate(118 292) rotate(5 220 150)">
      <rect x="0" y="38" width="344" height="204" rx="28" fill="url(#packetA)" stroke="#351514" stroke-width="6"/>
      <path d="M24 64 C108 96 226 95 320 60 L320 98 C214 126 106 124 24 100 Z" fill="#fff7ef" opacity="0.12"/>
      <rect x="44" y="92" width="136" height="18" rx="9" fill="#fff7ef" opacity="0.82"/>
      <rect x="44" y="132" width="200" height="18" rx="9" fill="#fff7ef" opacity="0.62"/>
      <rect x="44" y="174" width="156" height="18" rx="9" fill="#fff7ef" opacity="0.46"/>
      <circle cx="258" cy="154" r="60" fill="#5d2419" opacity="0.7"/>
      <path d="M215 154 C238 128 276 128 300 154 C276 176 239 176 215 154 Z" fill="#94502b"/>
      <rect x="258" y="70" width="66" height="66" rx="9" fill="url(#paper)" opacity="0.9"/>
      <path d="M271 84 h36 M271 101 h14 M298 101 h10 M271 118 h8 M288 118 h21" stroke="#351617" stroke-width="4" stroke-linecap="round"/>
    </g>
  </g>

  <g transform="translate(42 604)" filter="url(#softShadow)">
    <ellipse cx="454" cy="328" rx="510" ry="228" fill="#2d120e" opacity="0.28"/>
    <ellipse cx="430" cy="278" rx="478" ry="214" fill="url(#wood)" stroke="#d39b5d" stroke-width="7"/>
    <path d="M112 280 C256 216 476 194 800 254" fill="none" stroke="#5b2a16" stroke-width="8" opacity="0.24"/>
    <path d="M132 346 C326 265 548 267 800 335" fill="none" stroke="#2e160d" stroke-width="7" opacity="0.18"/>
    <g transform="translate(250 86)">
      <ellipse cx="174" cy="238" rx="204" ry="38" fill="#27100d" opacity="0.28"/>
      <path d="M0 122 C28 52 102 14 184 14 C270 14 344 52 370 122 C272 106 100 106 0 122 Z" fill="#d28d43"/>
      <path d="M20 130 C90 111 286 111 350 130 C328 158 294 172 186 172 C76 172 40 158 20 130 Z" fill="#f1c060"/>
      <path d="M38 180 C118 150 262 152 336 182 C314 218 276 236 186 236 C94 236 54 218 38 180 Z" fill="#74401f"/>
      <path d="M46 226 C110 242 260 244 324 226 C302 270 78 270 46 226 Z" fill="#eecb49"/>
      <path d="M38 256 C118 234 264 236 340 258 C318 300 78 300 38 256 Z" fill="#72401f"/>
      <path d="M16 272 C94 306 282 306 356 272 C340 332 32 332 16 272 Z" fill="#d28d43"/>
      <path d="M72 134 C98 116 128 116 154 134 M188 134 C216 114 244 116 270 134" fill="none" stroke="#fff5c7" stroke-width="8" stroke-linecap="round" opacity="0.74"/>
      <path d="M62 178 C140 200 238 198 320 178" fill="none" stroke="#477d3b" stroke-width="18" stroke-linecap="round"/>
      <path d="M60 166 C136 146 240 148 322 168" fill="none" stroke="#dd4b38" stroke-width="20" stroke-linecap="round"/>
      <path d="M78 152 C150 132 234 134 302 152" fill="none" stroke="#80487d" stroke-width="17" stroke-linecap="round"/>
    </g>
    <g transform="translate(92 286)" opacity="0.84">
      <ellipse cx="74" cy="76" rx="86" ry="50" fill="#f1e3cf"/>
      <ellipse cx="74" cy="68" rx="62" ry="34" fill="#b6402b"/>
      <ellipse cx="74" cy="58" rx="46" ry="22" fill="#d95536"/>
    </g>
    <g transform="translate(720 246)" opacity="0.84">
      <ellipse cx="76" cy="76" rx="88" ry="50" fill="#f1e3cf"/>
      <ellipse cx="76" cy="68" rx="62" ry="34" fill="#d09a32"/>
      <ellipse cx="76" cy="58" rx="46" ry="22" fill="#f0c957"/>
    </g>
  </g>

  <use href="#plainFlag" x="146" y="698" transform="rotate(-9 146 698)"/>
  <use href="#plainFlag" x="1568" y="305" transform="scale(.78) rotate(8 1568 305)"/>
  <use href="#meatDoodle" x="714" y="560" transform="scale(.78) rotate(-8 714 560)"/>
  <use href="#meatDoodle" x="1514" y="626" transform="scale(.7) rotate(10 1514 626)"/>
  <use href="#spark" x="828" y="120" transform="scale(.92) rotate(-8 828 120)"/>

  <g fill="none" stroke="#fff7ef" stroke-width="7" stroke-linecap="round" opacity="0.62">
    <path d="M812 116 l34 20 M786 176 l-38 12 M854 181 l42 -18"/>
    <path d="M160 540 l-52 26 M142 590 l-66 -2 M174 632 l-48 38"/>
    <path d="M1650 244 l42 -26 M1675 296 l64 4 M1640 330 l48 45"/>
  </g>

  <rect x="0" y="0" width="1920" height="1080" fill="none" stroke="#000" stroke-opacity="0.05" stroke-width="2"/>
</svg>
