<?xml version="1.0" encoding="UTF-8"?>
<svg xmlns="http://www.w3.org/2000/svg" width="1024" height="1024" viewBox="0 0 1024 1024" fill="none">
  <g transform="translate(118 282) scale(1.35)">
    <path d="M177.604 268.736C123.298 268.736 79.2798 224.758 79.2798 170.5C79.2798 116.242 123.298 72.2644 177.604 72.2644C231.911 72.2644 275.929 116.242 275.929 170.5C275.929 224.758 231.911 268.736 177.604 268.736ZM346.64 145.652L328.532 89.9475C323.286 73.8132 313.048 59.7381 299.301 49.7648L251.876 15.3346C238.129 5.36127 221.571 -0.0168457 204.587 -0.0168457H145.971C128.987 -0.0168457 112.429 5.36127 98.6824 15.3346L51.2576 49.7648C37.5105 59.7381 27.2897 73.8132 22.0259 89.9475L3.93503 145.652C-1.31168 161.803 -1.31168 179.18 3.93503 195.331L22.043 251.036C27.2897 267.17 37.5276 281.245 51.2746 291.219L98.6994 325.649C112.446 335.622 129.004 341 145.988 341H204.604C221.588 341 238.146 335.622 251.893 325.649L299.318 291.219C313.065 281.245 323.286 267.17 328.549 251.036L346.657 195.331C351.904 179.197 351.904 161.803 346.657 145.652" fill="#FF0028"/>
  </g>
  <path d="M623 397H891C906 397 916 412 910 426L899 450C895 459 886 465 876 465H608C593 465 583 450 589 436L600 412C604 403 613 397 623 397Z" fill="#FF0028"/>
  <path d="M595 493H820C835 493 845 508 839 522L828 546C824 555 815 561 805 561H580C565 561 555 546 561 532L572 508C576 499 585 493 595 493Z" fill="#FF0028"/>
  <path d="M566 589H748C763 589 773 604 767 618L756 642C752 651 743 657 733 657H551C536 657 526 642 532 628L543 604C547 595 556 589 566 589Z" fill="#FF0028"/>
</svg>
