<?xml version="1.0" encoding="UTF-8"?>
<svg xmlns="http://www.w3.org/2000/svg" width="742" height="341" viewBox="0 0 742 341" fill="none">
  <g clip-path="url(#clip0_1_170)">
    <path d="M177.604 268.736C123.298 268.736 79.2798 224.758 79.2798 170.5C79.2798 116.242 123.298 72.2644 177.604 72.2644C231.911 72.2644 275.929 116.242 275.929 170.5C275.929 224.758 231.911 268.736 177.604 268.736ZM346.64 145.652L328.532 89.9475C323.286 73.8132 313.048 59.7381 299.301 49.7648L251.876 15.3346C238.129 5.36127 221.571 -0.0168457 204.587 -0.0168457H145.971C128.987 -0.0168457 112.429 5.36127 98.6824 15.3346L51.2576 49.7648C37.5105 59.7381 27.2897 73.8132 22.0259 89.9475L3.93503 145.652C-1.31168 161.803 -1.31168 179.18 3.93503 195.331L22.043 251.036C27.2897 267.17 37.5276 281.245 51.2746 291.219L98.6994 325.649C112.446 335.622 129.004 341 145.988 341H204.604C221.588 341 238.146 335.622 251.893 325.649L299.318 291.219C313.065 281.245 323.286 267.17 328.549 251.036L346.657 195.331C351.904 179.197 351.904 161.803 346.657 145.652" fill="#FF0028"></path>
    <path d="M412.224 111.46C403.519 111.46 396.637 109.043 391.561 104.193C386.468 99.3421 383.929 92.4152 383.929 83.3949V66.5458C383.929 57.5255 386.468 50.5986 391.561 45.7481C396.637 40.8976 403.536 38.4808 412.224 38.4808C420.912 38.4808 427.521 40.8465 432.24 45.5439C436.959 50.2582 439.309 56.7256 439.309 64.9459V65.5416H426.261V64.5375C426.261 60.4018 425.102 56.9809 422.803 54.3088C420.486 51.6368 416.96 50.3093 412.224 50.3093C407.489 50.3093 403.86 51.7389 401.186 54.6152C398.511 57.4915 397.182 61.4059 397.182 66.3415V83.5822C397.182 88.4667 398.528 92.3471 401.186 95.2574C403.86 98.1678 407.54 99.6144 412.224 99.6144C416.909 99.6144 420.503 98.2699 422.803 95.5638C425.102 92.8577 426.261 89.4709 426.261 85.3862V83.5822H439.309V84.9777C439.309 93.1981 436.942 99.6655 432.24 104.38C427.521 109.094 420.861 111.443 412.224 111.443" fill="#0F0F0F"></path>
    <path d="M462.698 82.3907H481.556L473.021 48.2158H471.215L462.681 82.3907H462.698ZM442.12 110.047L460.586 39.8763H483.651L502.117 110.047H488.472L484.656 94.6106H459.581L455.765 110.047H442.12Z" fill="#0F0F0F"></path>
    <path d="M522.49 71.5665H538.349C541.484 71.5665 543.954 70.7155 545.725 69.0136C547.497 67.3116 548.383 65.0481 548.383 62.2399V61.2357C548.383 58.4275 547.514 56.181 545.777 54.462C544.039 52.7601 541.569 51.9091 538.349 51.9091H522.49V71.5495V71.5665ZM509.237 110.047V39.8934H539.729C544.141 39.8934 547.991 40.6593 551.262 42.191C554.532 43.7228 557.088 45.9013 558.893 48.7095C560.699 51.5177 561.602 54.8194 561.602 58.6318V59.8401C561.602 64.0439 560.597 67.4478 558.587 70.0688C556.577 72.6727 554.107 74.5789 551.16 75.7703V77.5743C553.834 77.7105 555.912 78.6295 557.377 80.3314C558.842 82.0334 559.592 84.297 559.592 87.1052V110.064H546.339V89.0113C546.339 87.4115 545.913 86.101 545.095 85.0969C544.261 84.0927 542.864 83.5992 540.939 83.5992H522.473V110.064H509.237V110.047Z" fill="#0F0F0F"></path>
    <path d="M571.261 110.047V39.8934H596.455L610.389 101.027H612.195V39.8934H625.244V110.047H600.066L586.115 48.9137H584.309V110.047H571.261Z" fill="#0F0F0F"></path>
    <path d="M637.151 110.047V39.8934H682.31V51.9091H650.404V68.6562H679.5V80.6889H650.404V98.0316H682.906V110.047H637.151Z" fill="#0F0F0F"></path>
    <path d="M715.409 111.46C709.992 111.46 705.205 110.49 701.066 108.55C696.926 106.609 693.672 103.835 691.339 100.227C688.988 96.619 687.83 92.279 687.83 87.1903V84.3821H700.878V87.1903C700.878 91.394 702.19 94.5596 704.779 96.67C707.385 98.7804 710.929 99.8356 715.426 99.8356C719.923 99.8356 723.364 98.9336 725.613 97.1296C727.861 95.3255 728.968 93.0109 728.968 90.2027C728.968 88.2625 728.406 86.6967 727.316 85.4883C726.209 84.2799 724.608 83.2928 722.495 82.527C720.4 81.7611 717.828 81.0463 714.83 80.3825L712.513 79.889C707.692 78.8167 703.57 77.4722 700.129 75.8213C696.688 74.1875 694.047 72.026 692.207 69.354C690.368 66.6819 689.448 63.21 689.448 58.9211C689.448 54.6322 690.47 50.9901 692.514 47.9436C694.558 44.8971 697.437 42.5655 701.151 40.9316C704.864 39.2978 709.225 38.4808 714.25 38.4808C719.276 38.4808 723.722 39.3318 727.64 41.0337C731.558 42.7357 734.624 45.2716 736.873 48.6584C739.104 52.0282 740.228 56.2661 740.228 61.3378V64.3503H727.18V61.3378C727.18 58.6658 726.652 56.5043 725.613 54.8705C724.573 53.2366 723.091 52.0283 721.15 51.2624C719.208 50.4965 716.908 50.1051 714.233 50.1051C710.213 50.1051 707.266 50.8539 705.358 52.3686C703.45 53.8663 702.496 55.9257 702.496 58.5296C702.496 60.2656 702.956 61.7463 703.859 62.9377C704.762 64.129 706.125 65.1332 707.931 65.9331C709.736 66.733 712.036 67.4308 714.847 68.0435L717.146 68.537C722.155 69.6093 726.532 70.9708 730.246 72.6387C733.96 74.3066 736.839 76.5191 738.917 79.2592C740.995 81.9994 742.034 85.5053 742.034 89.7772C742.034 94.0491 740.944 97.8103 738.763 101.061C736.6 104.312 733.517 106.848 729.531 108.669C725.545 110.507 720.86 111.426 715.443 111.426" fill="#0F0F0F"></path>
    <path d="M410.521 207.687C405.104 207.687 400.317 206.717 396.177 204.777C392.038 202.837 388.784 200.063 386.451 196.455C384.1 192.846 382.941 188.507 382.941 183.418V180.61H395.99V183.418C395.99 187.622 397.302 190.787 399.891 192.898C402.497 195.008 406.041 196.063 410.538 196.063C415.035 196.063 418.476 195.161 420.724 193.357C422.973 191.553 424.08 189.238 424.08 186.43C424.08 184.49 423.518 182.924 422.428 181.716C421.321 180.507 419.719 179.52 417.607 178.754C415.512 177.989 412.94 177.274 409.941 176.61L407.642 176.116C402.821 175.044 398.699 173.7 395.258 172.049C391.817 170.415 389.176 168.253 387.336 165.581C385.497 162.909 384.577 159.437 384.577 155.149C384.577 150.86 385.599 147.218 387.643 144.171C389.687 141.125 392.566 138.793 396.28 137.159C399.993 135.525 404.354 134.708 409.379 134.708C414.405 134.708 418.851 135.559 422.769 137.261C426.687 138.963 429.753 141.499 432.002 144.886C434.233 148.256 435.357 152.494 435.357 157.565V160.578H422.309V157.565C422.309 154.893 421.781 152.732 420.742 151.098C419.702 149.464 418.22 148.256 416.278 147.49C414.336 146.724 412.037 146.333 409.362 146.333C405.342 146.333 402.395 147.081 400.487 148.596C398.579 150.094 397.625 152.153 397.625 154.757C397.625 156.493 398.085 157.957 398.988 159.165C399.891 160.356 401.254 161.361 403.059 162.161C404.865 162.96 407.165 163.658 409.976 164.271L412.275 164.765C417.283 165.837 421.661 167.198 425.375 168.866C429.089 170.534 431.967 172.747 434.046 175.487C436.124 178.227 437.163 181.733 437.163 186.005C437.163 190.277 436.073 194.038 433.892 197.289C431.729 200.539 428.646 203.075 424.66 204.896C420.673 206.734 415.989 207.653 410.572 207.653" fill="#0F0F0F"></path>
    <path d="M462.698 178.618H481.556L473.021 144.443H471.215L462.681 178.618H462.698ZM442.12 206.275L460.586 136.104H483.651L502.117 206.275H488.472L484.656 190.838H459.581L455.765 206.275H442.12Z" fill="#0F0F0F"></path>
    <path d="M509.237 206.275V136.121H534.431L548.366 197.254H550.172V136.121H563.22V206.275H538.043L524.091 145.141H522.286V206.275H509.237Z" fill="#0F0F0F"></path>
    <path d="M386.144 302.502V232.348H410.725L422.871 293.482H424.677L436.822 232.348H461.403V302.502H448.559V242.066H446.754L434.71 302.502H412.837L400.794 242.066H398.988V302.502H386.144Z" fill="#0F0F0F"></path>
    <path d="M489.852 274.846H508.709L500.175 240.671H498.369L489.834 274.846H489.852ZM469.274 302.502L487.739 232.331H510.804L529.27 302.502H515.625L511.809 287.066H486.734L482.918 302.502H469.274Z" fill="#0F0F0F"></path>
    <path d="M550.546 264.021H566.406C569.54 264.021 572.01 263.17 573.782 261.469C575.553 259.767 576.439 257.503 576.439 254.695V253.691C576.439 250.882 575.57 248.636 573.833 246.917C572.095 245.215 569.625 244.364 566.406 244.364H550.546V264.004V264.021ZM537.293 302.502V232.331H567.786C572.198 232.331 576.047 233.097 579.318 234.629C582.589 236.161 585.144 238.339 586.95 241.147C588.755 243.956 589.658 247.257 589.658 251.07V252.278C589.658 256.482 588.653 259.886 586.643 262.507C584.633 265.111 582.163 267.017 579.216 268.208V270.012C581.89 270.148 583.969 271.067 585.434 272.769C586.899 274.471 587.648 276.735 587.648 279.543V302.502H574.395V281.449C574.395 279.849 573.969 278.539 573.151 277.535C572.317 276.531 570.92 276.037 568.995 276.037H550.529V302.502H537.293Z" fill="#0F0F0F"></path>
    <path d="M616.743 302.502V244.364H595.688V232.348H651.341V244.364H629.996V302.502H616.743Z" fill="#0F0F0F"></path>
    <path d="M671.646 232.348H658.393V302.519H671.646V232.348Z" fill="#0F0F0F"></path>
    <path d="M683.486 302.502V232.348H708.68L722.614 293.482H724.42V232.348H737.469V302.502H712.291L698.34 241.369H696.534V302.502H683.486Z" fill="#0F0F0F"></path>
  </g>
  <defs>
    <clipPath id="clip0_1_170">
      <rect width="742" height="341" fill="white"></rect>
    </clipPath>
  </defs>
</svg>
